<?xml version="1.0" encoding="utf-8"?>
<!-- Generator: Adobe Illustrator 26.1.0, SVG Export Plug-In . SVG Version: 6.00 Build 0)  -->
<svg version="1.1" id="Layer_1" xmlns="http://www.w3.org/2000/svg" xmlns:xlink="http://www.w3.org/1999/xlink" x="0px" y="0px"
	 viewBox="0 0 701.7 181" style="enable-background:new 0 0 701.7 181;" xml:space="preserve">
<style type="text/css">
	.st0{fill:#686868;}
	.st1{fill:#66BB2E;}
</style>
<g>
	<path class="st0" d="M184.2,130v-8.8l7.1-0.8c1.6-0.2,1.8-0.6,1.8-2.3v-58c0-1.7-0.2-2.2-1.8-2.3l-7.1-0.9v-8.9h59.7v22.9
		l-12.4-0.6l-1.6-8.6c-0.2-1.1-0.7-1.5-1.9-1.5h-17.3v22.2h26V95h-26v22.9c0,1.8,0.1,2,1.8,2.3l16.6,0.9v9H184.2z"/>
	<path class="st0" d="M249.2,130v-9l5.8-0.8c1.6-0.2,1.8-0.6,1.8-2.3V84.7c0-1.2-0.3-2-1.5-2.4l-6.1-2.2l1.2-9.2h23.4v47
		c0,1.8,0.1,2,1.8,2.3l5.8,0.8v8.9H249.2z M263.8,62c-6.5,0-10.2-3.7-10.2-10.2s3.7-10,10.2-10s10.3,3.5,10.3,10S270.4,62,263.8,62"
		/>
	<path class="st0" d="M328.3,126.8c-5.8,2.8-12,4.3-18.4,4.5c-13.5,0-18.5-5.4-18.5-18.2V83.5c0-0.7,0-1.1-0.9-1.1h-7.9V72.3
		c10-1.1,13.9-6.1,15.2-18.4h10.8v16.1c0,0.8,0,1.1,0.9,1.1h16v11.3h-16.9v27c0,6.7,1.6,9.3,7.7,9.3c3.1-0.1,6.2-0.7,9.2-1.8
		L328.3,126.8z"/>
	<path class="st1" d="M400.2,130v-8.8l9.3-0.8c1.6-0.2,1.8-0.7,1.8-2.3v-43h-0.5l-16.2,38.6h-18.4l-16-38.7h-0.6v43
		c0,1.8,0.1,2,1.8,2.3l9.7,0.9v8.8h-34.4v-8.8l7.1-0.8c1.6-0.2,1.8-0.6,1.8-2.3V60c0-1.7-0.2-2-1.8-2.3l-7.1-0.7v-9h30.3l19.7,51.3
		h0.5L408,48h29.4v8.8l-7.6,0.9c-1.7,0.2-1.8,0.5-1.8,2.2v58.2c0,1.5,0.3,1.9,1.8,2.2l7.6,0.9v8.9H400.2z"/>
	<path class="st1" d="M439.9,100.9c0-18.8,9.8-31,30.5-31c20.9,0,29.1,12.4,29.1,29.8c0,19.2-9.7,31.7-30.5,31.7
		S439.9,118.7,439.9,100.9 M481.7,100.2c0-13.3-4.1-18.1-11.4-18.1s-12.5,4.6-12.5,18.2s4.4,19.1,12,19.1
		C477.2,119.5,481.7,114.4,481.7,100.2"/>
	<path class="st1" d="M543.6,130V93.4c0-5.4-0.3-10-6-10c-4.2,0-9.4,2.4-11.8,4.2V118c0,1.8,0.1,2,1.8,2.3l5.4,0.8v8.9h-31.2v-9.1
		l5.1-0.7c1.6-0.2,1.8-0.6,1.8-2.3V84.7c0-1.2-0.3-2-1.5-2.4l-6.1-2.2l1.4-9.2h19.8l0.9,5.9l0.5,0.2c5.7-4.2,12.2-7.2,19.9-7.2
		c12.3,0,17.1,6.8,17.1,19.2V118c0,1.8,0.1,2,1.8,2.3l5.7,0.8v8.9H543.6z"/>
	<path class="st1" d="M621.6,125.6c-7.2,3.7-15.1,5.6-23.2,5.8c-21.8,0-29.3-13.6-29.3-31.2c0-20.5,12.6-30.2,28.1-30.2
		c14.9,0,24.9,7.8,24.9,27.4c0,1.4-0.1,5.3-0.2,7.6h-34.6c0.6,8,4.1,13.3,13.3,13.3c4.4,0,9.2-1,16.9-3.8L621.6,125.6z M605.3,94.1
		c-0.1-9.5-3.8-12-8.5-12c-4.9,0-8.8,2.7-9.5,12H605.3z"/>
	<path class="st1" d="M632.7,154v-9.2l8.8-1c1.5-0.1,2.2-0.9,2.8-2.5l4.9-10.8l-21.6-47.3c-0.5-1.4-1-1.6-2.4-1.9l-4.6-1.1l1.8-9.2
		h30v9.2l-7.1,0.9l12.5,29.9h0.8l12-29.9l-7.4-0.9l1.5-9.2H690v9.2l-3.6,0.7c-1.4,0.2-2.3,0.6-2.8,1.9l-24.9,60.9l11.8,1.2v9.1
		H632.7z"/>
	<path class="st1" d="M105.9,37.1c9.6,0,17.4-7.8,17.4-17.4c0-9.6-7.8-17.4-17.4-17.4s-17.4,7.8-17.4,17.4S96.3,37.1,105.9,37.1
		L105.9,37.1"/>
	<path class="st1" d="M158.6,9.5c-3.8-2.1-8-1.9-11.8,1.9l-21,26.2l-1.6,1.7c-9.1,8.6-22.9,9.7-33.3,2.8L66.4,23.3l0,0
		C62,20,55.8,20.8,52.5,25.2c-3.2,4.1-2.6,10,1.3,13.4l0,0l23.7,22.9c4.8,4.9,7.7,14.3,6.3,21l-12.6,60.2
		c-1.4,8.3,4.1,16.3,12.5,17.7c6.4,1.1,12.9-2,16-7.7c29.6-82,51.7-115,59.5-125.3l3.4-4.4C165.1,18.2,163.4,12.2,158.6,9.5
		C158.6,9.5,158.6,9.5,158.6,9.5 M105.8,97.6v5.4h-4.8v-5.5c-4.8-0.6-9.3-2.5-13-5.5l3.5-5c3.1,2.5,6.1,4.2,9.7,4.7V81
		c-8-2.1-11.8-5.1-11.8-11.3c0-6,4.7-10,11.6-10.6v-3.2h4.8v3.3c3.8,0.4,7.3,1.9,10.4,4.2l-3.1,5.2c-2.2-1.7-4.8-2.9-7.5-3.5v10.5
		c8.4,2.1,12,5.5,12,11.4S112.8,97,105.8,97.6"/>
	<path class="st0" d="M72.1,66.8l-7.1-6.9L11.9,87.1c-3.8,2-5.3,6.6-3.4,10.5c1.6,3.2,5.3,4.9,8.8,4l0.6-0.1c0,0,16.5-6.7,23.1,4.8
		c7.1,12.2,16,14.5,28,10.2L76.4,81C77.3,76.8,75.2,69.9,72.1,66.8"/>
	<path class="st1" d="M96,69.2c0,2.3,1,3.8,5.3,5.1v-9.7C97.8,64.9,96,66.8,96,69.2"/>
	<path class="st1" d="M105.6,82v10c3.5-0.3,5.5-2.1,5.5-4.7C111.1,84.8,109.9,83.3,105.6,82"/>
</g>
<g>
	<path class="st0" d="M542.5,146.4h7.5c4,0,6.3,2,6.3,5.2c0,2.8-1.7,4-2.9,4.4c1.5,0.5,3.6,1.9,3.6,5.2c0,4-3,6.3-7.2,6.3h-7.3
		V146.4z M549.4,155c2.9,0,4-1.1,4-3.1c0-1.9-1.3-3.2-3.8-3.2h-4.2v6.3H549.4z M545.4,165.2h4.2c2.5,0,4.4-1.2,4.4-4
		c0-2.5-1.5-3.9-4.7-3.9h-3.9V165.2z"/>
	<path class="st0" d="M577.4,157.7H568v7.3h10.4l-0.4,2.5h-12.9v-21.1h12.8v2.5H568v6.3h9.4V157.7z"/>
	<path class="st0" d="M590.7,148.9h-6.1v-2.5h15.2v2.5h-6.1v18.6h-2.9V148.9z"/>
	<path class="st0" d="M607.3,161.4l-1.9,6.2h-2.9c1.3-3.7,5.4-16.9,6.8-21.1h3.7l7.1,21.1H617l-2-6.2H607.3z M614.3,158.9
		c-1.7-5.2-2.8-8.3-3.2-10.1H611c-0.6,2.5-1.6,5.7-3,10.1H614.3z"/>
</g>
</svg>
