<svg width="18" height="21" viewBox="0 0 18 21" fill="none" xmlns="http://www.w3.org/2000/svg">
<path d="M1.44434 13.5184H15.1382C15.3258 13.5183 15.5096 13.4647 15.6679 13.364C15.8263 13.2633 15.9526 13.1195 16.0322 12.9496C16.1118 12.7796 16.1413 12.5905 16.1173 12.4044C16.0933 12.2182 16.0168 12.0428 15.8967 11.8986L12.3085 7.59243L15.8967 3.28626C16.0168 3.14206 16.0933 2.96662 16.1173 2.7805C16.1413 2.59437 16.1118 2.40526 16.0322 2.2353C15.9526 2.06534 15.8263 1.92158 15.6679 1.82085C15.5096 1.72011 15.3258 1.66657 15.1382 1.6665H1.44434V19.4443" fill="#66BB2E"/>
<path d="M1.44434 13.5184H15.1382C15.3258 13.5183 15.5096 13.4647 15.6679 13.364C15.8263 13.2633 15.9526 13.1195 16.0322 12.9496C16.1118 12.7796 16.1413 12.5905 16.1173 12.4044C16.0933 12.2182 16.0168 12.0428 15.8967 11.8986L12.3085 7.59243L15.8967 3.28626C16.0168 3.14206 16.0933 2.96662 16.1173 2.7805C16.1413 2.59437 16.1118 2.40526 16.0322 2.2353C15.9526 2.06534 15.8263 1.92158 15.6679 1.82085C15.5096 1.72011 15.3258 1.66657 15.1382 1.6665H1.44434V19.4443" stroke="#66BB2E" stroke-width="2.5" stroke-linecap="round" stroke-linejoin="round"/>
</svg>
