<svg width="28" height="28" viewBox="0 0 28 28" fill="none" xmlns="http://www.w3.org/2000/svg">
<path d="M13.667 5.4668C12.2416 5.46861 10.8751 6.03563 9.86726 7.04352C8.85936 8.05142 8.29234 9.41789 8.29053 10.8433H11.0239C11.0239 9.38503 12.2101 8.20013 13.667 8.20013C15.1239 8.20013 16.3101 9.38503 16.3101 10.8433C16.3101 11.6605 15.6528 12.2537 14.6483 13.0655C14.3201 13.3225 14.0049 13.5957 13.7039 13.8841C12.34 15.2467 12.3003 16.694 12.3003 16.8552V17.7668H15.0337L15.0323 16.9017C15.0337 16.8798 15.0774 16.3742 15.635 15.8179C15.84 15.6129 16.0983 15.4079 16.3662 15.192C17.4308 14.3296 19.0421 13.0272 19.0421 10.8433C19.041 9.41791 18.4744 8.05122 17.4666 7.04321C16.4589 6.0352 15.0924 5.46824 13.667 5.4668ZM12.3003 19.1335H15.0337V21.8668H12.3003V19.1335Z" fill="white"/>
<path d="M13.6667 0C6.13087 0 0 6.13087 0 13.6667C0 21.2025 6.13087 27.3333 13.6667 27.3333C21.2025 27.3333 27.3333 21.2025 27.3333 13.6667C27.3333 6.13087 21.2025 0 13.6667 0ZM13.6667 24.6C7.6383 24.6 2.73333 19.695 2.73333 13.6667C2.73333 7.6383 7.6383 2.73333 13.6667 2.73333C19.695 2.73333 24.6 7.6383 24.6 13.6667C24.6 19.695 19.695 24.6 13.6667 24.6Z" fill="white"/>
</svg>
