<svg id="Layer_1" data-name="Layer 1" xmlns="http://www.w3.org/2000/svg" width="701.67" height="162.93" viewBox="0 0 701.67 162.93">
  <title>logo_color_side</title>
  <g>
    <path d="M184.17,130v-8.82l7.13-.79c1.58-.22,1.81-.56,1.81-2.26v-58c0-1.7-.23-2.15-1.81-2.26L184.17,57V48.06h59.74V70.92l-12.45-.57-1.58-8.6c-.23-1.13-.68-1.47-1.92-1.47H210.65V82.46h26V95h-26v22.86c0,1.81.11,2,1.81,2.26l16.63.9V130Z" style="fill: #686868"/>
    <path d="M249.23,130V121l5.77-.79c1.58-.23,1.81-.57,1.81-2.26V84.72c0-1.25-.34-2-1.47-2.38l-6.11-2.15L250.47,71H273.9v47c0,1.81.11,2,1.81,2.26l5.77.79V130Zm14.6-68c-6.45,0-10.18-3.73-10.18-10.18s3.73-10,10.18-10,10.3,3.51,10.3,10S270.39,62,263.83,62" style="fill: #686868"/>
    <path d="M328.32,126.81a45.2,45.2,0,0,1-18.44,4.53c-13.46,0-18.55-5.43-18.55-18.22V83.48c0-.68,0-1.13-.91-1.13h-7.92V72.27c10-1.13,13.92-6.11,15.16-18.44h10.75V69.9c0,.79,0,1.13.9,1.13h16V82.35H308.41v27c0,6.68,1.58,9.28,7.69,9.28a27,27,0,0,0,9.17-1.81Z" style="fill: #686868"/>
    <path d="M400.22,130v-8.82l9.28-.79c1.58-.22,1.81-.68,1.81-2.26v-43h-.45l-16.18,38.58H376.23l-16-38.7h-.57v43c0,1.81.11,2,1.81,2.26l9.73.91V130h-34.4v-8.82l7.13-.79c1.58-.22,1.81-.56,1.81-2.26V60c0-1.7-.23-2-1.81-2.26L336.85,57V48.05h30.32l19.69,51.26h.45L408,48.05h29.42v8.82l-7.58.9c-1.7.23-1.81.45-1.81,2.15v58.16c0,1.47.34,1.92,1.81,2.15l7.58.91V130Z" style="fill: #66bb2e"/>
    <path d="M439.93,100.9c0-18.78,9.84-31,30.55-31,20.93,0,29.08,12.45,29.08,29.76,0,19.23-9.73,31.68-30.55,31.68s-29.08-12.67-29.08-30.44m41.75-.68c0-13.35-4.07-18.1-11.43-18.1s-12.45,4.64-12.45,18.22,4.41,19.12,12,19.12c7.36,0,11.88-5.09,11.88-19.24" style="fill: #66bb2e"/>
    <path d="M543.57,130V93.43c0-5.43-.34-10-6-10-4.19,0-9.39,2.38-11.77,4.19V118c0,1.81.11,2,1.81,2.26l5.43.79V130H501.82v-9.05l5.09-.68c1.58-.23,1.81-.57,1.81-2.26V84.71c0-1.25-.34-2-1.47-2.38l-6.11-2.15L502.5,71h19.8l.9,5.88.45.23c5.66-4.18,12.22-7.24,19.91-7.24,12.33,0,17.09,6.79,17.09,19.24V118c0,1.81.11,2,1.81,2.26l5.66.79V130Z" style="fill: #66bb2e"/>
    <path d="M621.64,125.56a52.87,52.87,0,0,1-23.19,5.77c-21.84,0-29.31-13.58-29.31-31.23,0-20.48,12.56-30.21,28.06-30.21,14.93,0,24.89,7.81,24.89,27.38,0,1.36-.11,5.32-.23,7.58H587.25c.57,8,4.07,13.35,13.35,13.35,4.41,0,9.17-1,16.86-3.85ZM605.35,94.11c-.11-9.5-3.85-12-8.49-12-4.87,0-8.82,2.71-9.51,12Z" style="fill: #66bb2e"/>
    <path d="M632.73,154V144.8l8.82-1c1.47-.11,2.15-.91,2.83-2.49l4.86-10.75-21.61-47.3c-.45-1.36-1-1.58-2.38-1.92l-4.64-1.13L622.44,71h30v9.17l-7.13.9L657.85,111h.79l12-29.87-7.36-.9L664.76,71H690v9.17l-3.62.68c-1.36.23-2.26.57-2.83,1.92l-24.89,60.88,11.77,1.25V154Z" style="fill: #66bb2e"/>
    <path d="M105.87,37.12a17.4,17.4,0,1,0-17.4-17.4,17.4,17.4,0,0,0,17.4,17.4" style="fill: #66bb2e"/>
    <path d="M158.61,9.49c-3.75-2.07-8-1.9-11.76,1.85l-21,26.25-1.6,1.66A26.82,26.82,0,0,1,91,42.06L66.38,23.32h0a9.92,9.92,0,0,0-12.61,15.3v0L77.44,61.52c4.83,4.85,7.67,14.31,6.29,21L71.17,142.68a15.31,15.31,0,0,0,28.5,10c29.63-82,51.67-115,59.48-125.32L162.5,23a9.91,9.91,0,0,0-3.89-13.47M105.85,97.56V103h-4.79V97.51a25.59,25.59,0,0,1-13-5.46l3.53-5c3.14,2.54,6.12,4.19,9.7,4.74V81c-8-2.09-11.8-5.13-11.8-11.35,0-6,4.69-10,11.57-10.58v-3.2h4.79v3.31a21.11,21.11,0,0,1,10.36,4.19l-3.09,5.18A19,19,0,0,0,105.63,65V75.46c8.38,2.09,12,5.46,12,11.41S112.85,97,105.85,97.56" style="fill: #66bb2e"/>
    <path d="M72.14,66.8l-7.08-6.86L11.92,87.1a7.78,7.78,0,0,0,5.41,14.48l.57-.14S34.37,94.78,41,106.22c7.09,12.19,16,14.54,28,10.21L76.42,81c.86-4.22-1.21-11.14-4.27-14.22" style="fill: #686868"/>
    <path d="M96,69.23c0,2.31,1,3.8,5.29,5.07V64.6c-3.47.28-5.29,2.2-5.29,4.63" style="fill: #66bb2e"/>
    <path d="M105.63,82V92c3.47-.28,5.46-2.1,5.46-4.74,0-2.48-1.16-4-5.46-5.24" style="fill: #66bb2e"/>
  </g>
</svg>
