<svg width="26" height="29" viewBox="0 0 26 29" fill="none" xmlns="http://www.w3.org/2000/svg">
<path fill-rule="evenodd" clip-rule="evenodd" d="M3.60098 0.200195C2.6462 0.200195 1.73052 0.57948 1.05539 1.25461C0.380261 1.92974 0.000976563 2.84542 0.000976562 3.8002V29.0002L6.30098 25.4002L12.601 29.0002L18.901 25.4002L25.201 29.0002V3.8002C25.201 2.84542 24.8217 1.92974 24.1466 1.25461C23.4714 0.57948 22.5558 0.200195 21.601 0.200195H3.60098ZM8.10098 5.6002C7.38489 5.6002 6.69814 5.88466 6.19179 6.39101C5.68544 6.89736 5.40098 7.58411 5.40098 8.3002C5.40098 9.01628 5.68544 9.70304 6.19179 10.2094C6.69814 10.7157 7.38489 11.0002 8.10098 11.0002C8.81706 11.0002 9.50382 10.7157 10.0102 10.2094C10.5165 9.70304 10.801 9.01628 10.801 8.3002C10.801 7.58411 10.5165 6.89736 10.0102 6.39101C9.50382 5.88466 8.81706 5.6002 8.10098 5.6002ZM19.2736 6.1276C18.936 5.79015 18.4783 5.60058 18.001 5.60058C17.5237 5.60058 17.0659 5.79015 16.7284 6.1276L5.92838 16.9276C5.75646 17.0936 5.61933 17.2923 5.52499 17.5119C5.43066 17.7315 5.381 17.9677 5.37893 18.2067C5.37685 18.4457 5.42239 18.6827 5.5129 18.9039C5.6034 19.1251 5.73706 19.3261 5.90607 19.4951C6.07507 19.6641 6.27605 19.7978 6.49726 19.8883C6.71847 19.9788 6.9555 20.0243 7.1945 20.0222C7.4335 20.0202 7.6697 19.9705 7.8893 19.8762C8.10891 19.7818 8.30753 19.6447 8.47358 19.4728L19.2736 8.6728C19.611 8.33525 19.8006 7.87749 19.8006 7.4002C19.8006 6.9229 19.611 6.46515 19.2736 6.1276ZM17.101 14.6002C16.3849 14.6002 15.6981 14.8847 15.1918 15.391C14.6854 15.8974 14.401 16.5841 14.401 17.3002C14.401 18.0163 14.6854 18.703 15.1918 19.2094C15.6981 19.7157 16.3849 20.0002 17.101 20.0002C17.8171 20.0002 18.5038 19.7157 19.0102 19.2094C19.5165 18.703 19.801 18.0163 19.801 17.3002C19.801 16.5841 19.5165 15.8974 19.0102 15.391C18.5038 14.8847 17.8171 14.6002 17.101 14.6002Z" fill="#F7F7F7"/>
</svg>
