<svg width="21" height="27" viewBox="0 0 21 27" fill="none" xmlns="http://www.w3.org/2000/svg">
<path d="M20.0387 5.53711L14.9907 0.369141C14.7587 0.131836 14.4441 0 14.1141 0H13.7996V6.75H20.3996V6.42832C20.3996 6.09609 20.2707 5.77441 20.0387 5.53711ZM12.1496 7.17188V0H1.83711C1.15133 0 0.599609 0.564258 0.599609 1.26562V25.7344C0.599609 26.4357 1.15133 27 1.83711 27H19.1621C19.8479 27 20.3996 26.4357 20.3996 25.7344V8.4375H13.3871C12.7065 8.4375 12.1496 7.86797 12.1496 7.17188ZM3.89961 3.79688C3.89961 3.56379 4.0842 3.375 4.31211 3.375H8.43711C8.66502 3.375 8.84961 3.56379 8.84961 3.79688V4.64062C8.84961 4.87371 8.66502 5.0625 8.43711 5.0625H4.31211C4.0842 5.0625 3.89961 4.87371 3.89961 4.64062V3.79688ZM3.89961 8.01562V7.17188C3.89961 6.93879 4.0842 6.75 4.31211 6.75H8.43711C8.66502 6.75 8.84961 6.93879 8.84961 7.17188V8.01562C8.84961 8.24871 8.66502 8.4375 8.43711 8.4375H4.31211C4.0842 8.4375 3.89961 8.24871 3.89961 8.01562ZM11.3246 21.9312V23.2031C11.3246 23.4362 11.14 23.625 10.9121 23.625H10.0871C9.8592 23.625 9.67461 23.4362 9.67461 23.2031V21.9222C9.09247 21.8916 8.52631 21.6838 8.05709 21.3237C7.856 21.1692 7.84569 20.8612 8.0277 20.6835L8.63356 20.0923C8.77639 19.9531 8.98883 19.9468 9.15589 20.0538C9.35544 20.1814 9.5818 20.25 9.81692 20.25H11.2663C11.6015 20.25 11.8748 19.9378 11.8748 19.5544C11.8748 19.2407 11.6886 18.9643 11.4226 18.8831L9.10227 18.1712C8.14372 17.877 7.47392 16.9362 7.47392 15.8831C7.47392 14.59 8.45619 13.5396 9.67409 13.5063V12.2344C9.67409 12.0013 9.85869 11.8125 10.0866 11.8125H10.9116C11.1395 11.8125 11.3241 12.0013 11.3241 12.2344V13.5153C11.9062 13.5459 12.4724 13.7531 12.9416 14.1138C13.1427 14.2683 13.153 14.5763 12.971 14.754L12.3651 15.3452C12.2223 15.4844 12.0099 15.4907 11.8428 15.3837C11.6433 15.2555 11.4169 15.1875 11.1818 15.1875H9.73236C9.3972 15.1875 9.12392 15.4997 9.12392 15.8831C9.12392 16.1968 9.31006 16.4732 9.57613 16.5544L11.8964 17.2663C12.855 17.5605 13.5248 18.5013 13.5248 19.5544C13.5248 20.848 12.5425 21.8979 11.3246 21.9312Z" fill="white"/>
</svg>
