<svg width="29" height="25" viewBox="0 0 29 25" fill="none" xmlns="http://www.w3.org/2000/svg">
<path d="M27.9716 0.799805H1.22877C0.659838 0.799805 0.200195 1.27512 0.200195 1.86344V7.18162H29.0002V1.86344C29.0002 1.27512 28.5406 0.799805 27.9716 0.799805ZM0.200195 23.1362C0.200195 23.7245 0.659838 24.1998 1.22877 24.1998H27.9716C28.5406 24.1998 29.0002 23.7245 29.0002 23.1362V10.1066H0.200195V23.1362ZM18.8109 17.0203C18.8109 16.874 18.9266 16.7544 19.0681 16.7544H24.3716C24.5131 16.7544 24.6288 16.874 24.6288 17.0203V19.4134C24.6288 19.5597 24.5131 19.6794 24.3716 19.6794H19.0681C18.9266 19.6794 18.8109 19.5597 18.8109 19.4134V17.0203Z" fill="white"/>
</svg>
