<svg width="27" height="29" viewBox="0 0 27 29" fill="none" xmlns="http://www.w3.org/2000/svg">
<path fill-rule="evenodd" clip-rule="evenodd" d="M26.999 26.8911C26.999 27.8577 26.504 28.6443 25.892 28.6443H1.10602C0.494023 28.6443 -0.000976562 27.8577 -0.000976562 26.8911C-0.000976562 25.9209 0.494023 25.1343 1.10602 25.1343H25.892C26.504 25.1343 26.999 25.9209 26.999 26.8911Z" fill="white"/>
<path fill-rule="evenodd" clip-rule="evenodd" d="M7.104 21.9966C7.104 22.6752 6.4452 23.2314 5.6352 23.2314H3.4338C2.622 23.2314 1.9668 22.6752 1.9668 21.9966V15.8046C1.9668 15.1242 2.622 14.5698 3.4338 14.5698H5.6352C6.4452 14.5698 7.104 15.1242 7.104 15.8046V21.9966Z" fill="white"/>
<path fill-rule="evenodd" clip-rule="evenodd" d="M16.0376 21.9987C16.0376 22.6791 15.3806 23.2317 14.5706 23.2317H12.3674C11.5574 23.2317 10.9004 22.6791 10.9004 21.9987V13.9347C10.9004 13.2543 11.5574 12.7017 12.3674 12.7017H14.5706C15.3806 12.7017 16.0376 13.2543 16.0376 13.9347V21.9987Z" fill="white"/>
<path fill-rule="evenodd" clip-rule="evenodd" d="M25.0877 21.9501C25.0877 22.6251 24.4271 23.1741 23.6045 23.1741H21.3797C20.5589 23.1741 19.8965 22.6251 19.8965 21.9501V10.2411C19.8965 9.56609 20.5589 9.01709 21.3797 9.01709H23.6045C24.4271 9.01709 25.0877 9.56609 25.0877 10.2411V21.9501Z" fill="white"/>
<path fill-rule="evenodd" clip-rule="evenodd" d="M1.31938 12.3901C0.992306 12.3913 0.677459 12.2658 0.440872 12.04C0.204285 11.8141 0.0643386 11.5054 0.0503831 11.1787C0.0453522 11.0129 0.0731825 10.8478 0.132269 10.6929C0.191356 10.5379 0.280531 10.3962 0.394651 10.2759C0.508771 10.1556 0.645579 10.0591 0.797186 9.99188C0.948792 9.9247 1.1122 9.88819 1.27798 9.88447C10.2852 9.56587 18.8604 6.09547 24.8112 0.357066C25.0543 0.124228 25.379 -0.0039464 25.7156 9.26411e-05C26.0522 0.00413168 26.3737 0.140061 26.6112 0.378666C26.7277 0.495596 26.8198 0.634589 26.882 0.787517C26.9442 0.940445 26.9753 1.10424 26.9734 1.26932C26.9716 1.43441 26.9369 1.59747 26.8713 1.74897C26.8057 1.90047 26.7105 2.03737 26.5914 2.15167C20.1006 8.41027 11.142 12.0463 1.36618 12.3883L1.31938 12.3901Z" fill="white"/>
</svg>
