<svg width="29" height="27" viewBox="0 0 29 27" fill="none" xmlns="http://www.w3.org/2000/svg">
<path d="M20.7482 13.5C24.525 13.5 27.5902 10.476 27.5902 6.75C27.5902 3.024 24.525 0 20.7482 0C16.9714 0 13.9062 3.024 13.9062 6.75C13.9062 10.476 16.9714 13.5 20.7482 13.5ZM28.206 21.06C27.6724 20.52 27.0018 20.25 26.2218 20.25H16.643L13.7967 19.2645L14.2483 17.9955L16.643 18.9H20.4745C20.9535 18.9 21.3366 18.711 21.6514 18.4005C21.9661 18.09 22.1166 17.712 22.1166 17.2935C22.1166 16.5645 21.7608 16.065 21.0493 15.7815L11.1009 12.15H8.43254V24.3L18.0114 27L28.9997 22.95C29.0134 22.2345 28.7397 21.6 28.206 21.06ZM5.69572 12.15H0.200195V27H5.69572V12.15Z" fill="white"/>
</svg>
