<svg width="29" height="19" viewBox="0 0 29 19" fill="none" xmlns="http://www.w3.org/2000/svg">
<path d="M14.6 13.2C15.5548 13.2 16.4705 12.8207 17.1456 12.1456C17.8207 11.4705 18.2 10.5548 18.2 9.6C18.2 8.64522 17.8207 7.72955 17.1456 7.05442C16.4705 6.37928 15.5548 6 14.6 6C13.6452 6 12.7295 6.37928 12.0544 7.05442C11.3793 7.72955 11 8.64522 11 9.6C11 10.5548 11.3793 11.4705 12.0544 12.1456C12.7295 12.8207 13.6452 13.2 14.6 13.2Z" fill="white"/>
<path d="M0.199219 2.4001C0.199219 1.92271 0.388861 1.46487 0.726427 1.12731C1.06399 0.78974 1.52183 0.600098 1.99922 0.600098H27.1992C27.6766 0.600098 28.1344 0.78974 28.472 1.12731C28.8096 1.46487 28.9992 1.92271 28.9992 2.4001V16.8001C28.9992 17.2775 28.8096 17.7353 28.472 18.0729C28.1344 18.4105 27.6766 18.6001 27.1992 18.6001H1.99922C1.52183 18.6001 1.06399 18.4105 0.726427 18.0729C0.388861 17.7353 0.199219 17.2775 0.199219 16.8001V2.4001ZM5.59922 2.4001C5.59922 3.35488 5.21993 4.27055 4.5448 4.94568C3.86967 5.62081 2.954 6.0001 1.99922 6.0001V13.2001C2.954 13.2001 3.86967 13.5794 4.5448 14.2545C5.21993 14.9296 5.59922 15.8453 5.59922 16.8001H23.5992C23.5992 15.8453 23.9785 14.9296 24.6536 14.2545C25.3288 13.5794 26.2444 13.2001 27.1992 13.2001V6.0001C26.2444 6.0001 25.3288 5.62081 24.6536 4.94568C23.9785 4.27055 23.5992 3.35488 23.5992 2.4001H5.59922Z" fill="white"/>
</svg>
